<?xml version="1.0" encoding="utf-8"?><svg xmlns="http://www.w3.org/2000/svg" xmlns:xlink="http://www.w3.org/1999/xlink"><symbol viewBox="0 0 24 24" id="arrow-down" xmlns="http://www.w3.org/2000/svg"><path d="M12 13.071L8.179 9.25a1.061 1.061 0 00-1.5 1.5l4.614 4.614a.999.999 0 001.414 0l4.614-4.614a1.061 1.061 0 00-1.5-1.5L12 13.071z" opacity=".38"/></symbol><symbol viewBox="0 0 20 20" id="arrow-left" xmlns="http://www.w3.org/2000/svg"><path fill-opacity=".24" d="M9.296 10l3.394 3.393a.942.942 0 01-1.332 1.331l-4.097-4.096a.888.888 0 010-1.256l4.097-4.096a.942.942 0 011.332 1.331L9.296 10z"/></symbol><symbol viewBox="0 0 20 20" id="arrow-right" xmlns="http://www.w3.org/2000/svg"><path fill-opacity=".24" d="M10.704 10L7.31 6.607a.942.942 0 011.332-1.331l4.097 4.096a.888.888 0 010 1.256l-4.097 4.096a.942.942 0 01-1.332-1.331L10.704 10z"/></symbol><symbol viewBox="0 0 56 56" id="circle-arrow-left" xmlns="http://www.w3.org/2000/svg"><path d="M56 28C56 12.536 43.464 0 28 0S0 12.536 0 28s12.536 28 28 28 28-12.536 28-28zm-41.18-1.98l9.22-9.22c1.096-1.092 2.868-1.092 3.96 0s1.092 2.867 0 3.96l-4.44 4.44H39.2a2.8 2.8 0 010 5.6H23.56L28 35.24c1.092 1.093 1.092 2.868 0 3.96s-2.867 1.092-3.96 0l-9.22-9.22a2.803 2.803 0 010-3.96z" opacity=".24"/></symbol><symbol viewBox="0 0 56 56" id="circle-arrow-right" xmlns="http://www.w3.org/2000/svg"><path d="M0 28c0 15.464 12.536 28 28 28s28-12.536 28-28S43.464 0 28 0 0 12.536 0 28zm41.18 1.98l-9.22 9.22c-1.096 1.092-2.868 1.092-3.96 0s-1.092-2.867 0-3.96l4.44-4.44H16.8a2.8 2.8 0 010-5.6h15.64L28 20.76c-1.092-1.093-1.092-2.868 0-3.96s2.867-1.092 3.96 0l9.22 9.22a2.803 2.803 0 010 3.96z" opacity=".24"/></symbol><symbol viewBox="0 0 24 24" id="close" xmlns="http://www.w3.org/2000/svg"><path d="M7.335 6.667a.665.665 0 00-.464 1.143l4.19 4.189-4.19 4.188a.666.666 0 10.942.942L12 12.939l4.19 4.19a.666.666 0 10.941-.942L12.942 12l4.19-4.19a.665.665 0 10-.942-.941l-4.189 4.19-4.188-4.19a.671.671 0 00-.478-.201z"/></symbol><symbol viewBox="0 0 24 24" id="date" xmlns="http://www.w3.org/2000/svg"><path d="M7 2a1 1 0 00-1 1v1H5c-1.1 0-2 .9-2 2v5a1 1 0 002 0V9h14v11H5v-1a1 1 0 00-2 0v1c0 1.1.9 2 2 2h14c1.1 0 2-.9 2-2V6c0-1.1-.9-2-2-2h-1V3a1 1 0 00-2 0v1H8V3a1 1 0 00-1-1zm3.639 10.004a.716.716 0 00-.639.715V14H4a1 1 0 000 2h6v1.281c0 .64.773.958 1.225.506l2.11-2.11a.957.957 0 000-1.357l-2.11-2.11a.706.706 0 00-.586-.206z" opacity=".24"/></symbol><symbol viewBox="0 0 24 24" id="email" xmlns="http://www.w3.org/2000/svg"><path d="M12 2C6.489 2 2 6.489 2 12s4.489 10 10 10h4a1 1 0 100-2h-4c-4.43 0-8-3.57-8-8s3.57-8 8-8 8 3.57 8 8v1.5c0 .84-.66 1.5-1.5 1.5s-1.5-.66-1.5-1.5V12c0-.037-.002-.074-.006-.111C16.934 9.19 14.712 7 12 7c-2.75 0-5 2.25-5 5s2.25 5 5 5a4.975 4.975 0 003.6-1.553A3.504 3.504 0 0018.5 17c1.921 0 3.5-1.579 3.5-3.5V12c0-5.511-4.489-10-10-10zm0 7c1.669 0 3 1.331 3 3s-1.331 3-3 3-3-1.331-3-3 1.331-3 3-3z" opacity=".24"/></symbol><symbol viewBox="0 0 48 48" id="error" xmlns="http://www.w3.org/2000/svg"><path d="M24 0C10.766 0 0 10.766 0 24s10.766 24 24 24 24-10.766 24-24S37.234 0 24 0zm9.6 15.6c1.987 0 3.6 1.613 3.6 3.6s-1.613 3.6-3.6 3.6-3.6-1.613-3.6-3.6 1.613-3.6 3.6-3.6zm-19.2 0c1.987 0 3.6 1.613 3.6 3.6s-1.613 3.6-3.6 3.6-3.6-1.613-3.6-3.6 1.613-3.6 3.6-3.6zm17.808 20.102c-5.02-2.676-11.398-2.676-16.418 0a2.372 2.372 0 01-3.05-.724 2.426 2.426 0 01.825-3.54c3.173-1.71 6.732-2.602 10.435-2.602 3.703 0 7.265.893 10.435 2.602a2.427 2.427 0 01.826 3.54 2.375 2.375 0 01-3.053.724z"/></symbol><symbol viewBox="0 0 24 24" id="inst" xmlns="http://www.w3.org/2000/svg"><path d="M8.889 5A3.894 3.894 0 005 8.889v6.222A3.894 3.894 0 008.889 19h6.222A3.894 3.894 0 0019 15.111V8.89A3.894 3.894 0 0015.111 5H8.89zm0 1.556h6.222a2.335 2.335 0 012.333 2.333v6.222a2.335 2.335 0 01-2.333 2.333H8.89a2.335 2.335 0 01-2.333-2.333V8.89A2.335 2.335 0 018.89 6.557zm7 .777a.778.778 0 100 1.556.778.778 0 000-1.556zM12 8.111A3.894 3.894 0 008.111 12 3.894 3.894 0 0012 15.889 3.894 3.894 0 0015.889 12 3.894 3.894 0 0012 8.111zm0 1.556A2.336 2.336 0 0114.333 12 2.336 2.336 0 0112 14.333 2.336 2.336 0 019.667 12 2.336 2.336 0 0112 9.667z"/></symbol><symbol viewBox="0 0 24 24" id="phone" xmlns="http://www.w3.org/2000/svg"><path d="M13.988 2.002c-.11.007-.222.025-.334.055l-8.058 2.16A1.667 1.667 0 004.418 6.26l3.885 14.504a1.67 1.67 0 002.043 1.18l8.056-2.16a1.67 1.67 0 001.18-2.044L15.697 3.236a1.669 1.669 0 00-1.709-1.234zm.244 3.396a.498.498 0 01.414.366l2.764 10.314a.499.499 0 01-.353.611l-7.092 1.9a.497.497 0 01-.611-.353L6.59 7.922a.498.498 0 01.353-.611l7.092-1.9a.473.473 0 01.197-.013zm5.948.174a1 1 0 00-1.104 1.25l1.643 6.125a1 1 0 101.931-.517l-1.64-6.125c-.108-.4-.445-.68-.83-.733zM2.453 10.32a1 1 0 00-1.103 1.25l1.642 6.125a1 1 0 001.932-.517L3.28 11.053a1.001 1.001 0 00-.828-.733z" opacity=".24"/></symbol><symbol viewBox="0 0 56 56" id="play" xmlns="http://www.w3.org/2000/svg"><path d="M28 0C12.536 0 0 12.536 0 28s12.536 28 28 28 28-12.536 28-28S43.464 0 28 0zm-5.6 37.8V18.2c0-1.154 1.316-1.812 2.24-1.12l13.068 9.8a1.4 1.4 0 010 2.24l-13.068 9.8c-.924.692-2.24.034-2.24-1.12z"/></symbol><symbol viewBox="0 0 24 24" id="rocket" xmlns="http://www.w3.org/2000/svg"><path fill-opacity=".54" d="M6 15.444l-3.304-.734A.887.887 0 012 13.843v-.62a2.666 2.666 0 012.667-2.667h4.889L6 15.444zM9.556 19l.734 3.304c.09.407.45.696.867.696h.62a2.666 2.666 0 002.667-2.667v-4.889L9.556 19z"/><path d="M9.556 19c5.985-.863 11.437-5.79 12.3-11.776a13.99 13.99 0 00.11-2.978 1.315 1.315 0 00-1.212-1.212 13.992 13.992 0 00-2.978.11C11.79 4.007 6.863 9.459 6 15.444L9.556 19z"/><path d="M16 7a1.999 1.999 0 00-1.732 3 1.999 1.999 0 003.464 0A2.001 2.001 0 0016 7zM5.448 16.778a2.56 2.56 0 00-2.56 2.558v1.886c0 .491.399.89.89.89h1.886a2.56 2.56 0 002.558-2.56c0-.353-.14-.692-.39-.942L6.39 17.168c-.25-.25-.589-.39-.942-.39z"/></symbol><symbol viewBox="0 0 48 48" id="success" xmlns="http://www.w3.org/2000/svg"><path d="M24 0C10.745 0 0 10.745 0 24s10.745 24 24 24 24-10.745 24-24S37.255 0 24 0zm13.697 18.497l-16.8 16.8A2.394 2.394 0 0119.2 36a2.394 2.394 0 01-1.697-.703l-7.2-7.2a2.399 2.399 0 010-3.394 2.399 2.399 0 013.394 0l5.503 5.503 15.103-15.103a2.399 2.399 0 013.394 0 2.399 2.399 0 010 3.394z"/></symbol><symbol viewBox="0 0 24 24" id="tg" xmlns="http://www.w3.org/2000/svg"><path d="M19.462 5.25l-2.809 14.345s-.12.655-.934.655c-.432 0-.654-.206-.654-.206l-6.086-5.05-2.977-1.5-3.822-1.016s-.68-.197-.68-.76c0-.468.7-.691.7-.691l15.987-6.351c-.001-.001.488-.177.844-.176.22 0 .469.094.469.375 0 .188-.038.375-.038.375z"/><path d="M11.25 16.879l-2.57 2.53s-.111.087-.26.09a.36.36 0 01-.165-.032l.723-4.474 2.272 1.886z"/><path d="M16.423 7.647a.376.376 0 00-.526-.07L6 13.5s1.58 4.419 1.82 5.184c.242.766.435.784.435.784l.723-4.474 7.374-6.822a.373.373 0 00.07-.525z"/></symbol><symbol viewBox="0 0 24 24" id="user" xmlns="http://www.w3.org/2000/svg"><path d="M12 3C9.79 3 8 4.79 8 7s1.79 4 4 4 4-1.79 4-4-1.79-4-4-4zm0 11c-3.004 0-9 1.508-9 4.5V20a1 1 0 001 1h16a1 1 0 001-1v-1.5c0-2.992-5.996-4.5-9-4.5z" opacity=".24"/></symbol></svg>