<svg xmlns="http://www.w3.org/2000/svg" width="211" height="36" viewBox="0 0 211 36">
    <g fill="none">
        <path fill="#000" d="M85.32 14.933l.468-.514v-2.165h-10.88v2.679h6.583l-6.546 7.443-.78.888v1.791h11.898v-2.679H78.77l6.55-7.443zm-37.87-4.035h-3.086v14.213h3.086V10.898zM71.215 21.6v-9.35h-3.096v1.552c-1.07-1.18-2.586-1.858-4.18-1.87-3.501 0-6.344 3.038-6.344 6.783 0 3.745 2.843 6.784 6.345 6.784 1.74.016 3.398-.735 4.535-2.052.238 1.028.935 1.917 2.155 1.917h2.113v-2.665s-1.52.378-1.52-1.094l-.008-.005zm-6.752 1.052c-2.173.005-3.94-1.752-3.946-3.926-.006-2.173 1.751-3.94 3.925-3.947 2.173-.007 3.94 1.749 3.949 3.922.007 1.046-.403 2.051-1.139 2.794-.736.742-1.738 1.16-2.784 1.162l-.005-.005zm-7.424-11.75h-3.895l-5.685 6.836 5.798 7.368h3.899l-5.802-7.368 5.685-6.835zm44.135 10.703v-9.351h-3.095v1.552c-1.071-1.18-2.587-1.857-4.18-1.87-3.502 0-6.344 3.04-6.344 6.784 0 3.745 2.842 6.784 6.344 6.784 1.74.016 3.399-.735 4.535-2.053.239 1.029.935 1.917 2.156 1.917h2.113v-2.665s-1.529.374-1.529-1.098zm-6.732 1.052c-1.594.015-3.04-.933-3.662-2.4-.622-1.468-.298-3.165.82-4.3 1.12-1.136 2.813-1.484 4.289-.883 1.476.601 2.444 2.033 2.452 3.627.007 1.042-.4 2.044-1.13 2.786-.732.741-1.728 1.162-2.77 1.17zm22.175-1.314v-3.797s.383-5.563-4.816-5.563c-1.524-.001-2.94.788-3.74 2.085v-1.795h-3.095V25.11h3.095v-8.168c.29-1 1.047-2.169 2.997-2.169 2.697 0 2.515 2.772 2.515 2.772v4.844c0 1.314.66 2.721 2.417 2.721h1.936v-2.539s-1.328.244-1.328-1.234l.019.005zm63.687-9.426c-4.507 0-6.9 2.997-6.9 6.76 0 3.765 2.337 6.813 6.956 6.813 2.263 0 3.778-.935 5.18-2.338l-1.8-1.79s-.972 1.463-3.74 1.463c-3.334 0-3.59-3.362-3.59-3.362h10c.023-.266.037-.505.037-.78.019-3.764-2.408-6.766-6.143-6.766zm-3.787 5.428c.3-1.666 1.777-2.86 3.469-2.805 2.104 0 3.128 1.16 3.362 2.805h-6.831zm15.171-1.669c0-.607.706-1.145 1.655-1.145 1.03-.058 2.031.355 2.721 1.122l1.702-1.842s-1.08-1.87-4.638-1.87-4.334 2.468-4.334 3.95c0 4.353 6.714 3.24 6.714 5.662 0 0 .131 1.267-2.436 1.267-1.294.042-2.531-.536-3.329-1.557l-1.917 1.627s1.24 2.619 5.083 2.619 5.474-1.969 5.474-3.858c-.018-4.773-6.695-3.927-6.695-5.975zm11.983 0c0-.607.706-1.145 1.655-1.145 1.03-.057 2.03.355 2.721 1.122l1.655-1.842s-1.08-1.87-4.638-1.87-4.334 2.468-4.334 3.95c0 4.353 6.714 3.24 6.714 5.662 0 0 .131 1.267-2.436 1.267-1.294.041-2.53-.537-3.329-1.557l-1.916 1.627s1.239 2.619 5.086 2.619c3.848 0 5.475-1.969 5.475-3.858.028-4.773-6.63-3.927-6.63-5.975h-.023zM167.4 14.302v-1.997h-3.072v12.797h3.072v-7.448c.295-.996 1.029-2.455 2.838-2.66 1.403-.16 1.847.075 1.847.075v-3.002s-3.45-.561-4.657 2.235h-.028zm-11.852-2.338c-1.64.004-3.2.704-4.292 1.926v-1.585h-3.048v17.706h3.071v-6.634c1.035 1.324 2.612 2.11 4.292 2.136 3.432 0 6.219-3.034 6.219-6.784s-2.782-6.779-6.214-6.779l-.028.014zm-.65 10.707c-2.168-.008-3.921-1.767-3.922-3.935-.001-2.169 1.751-3.93 3.92-3.939 2.167-.009 3.935 1.736 3.953 3.904.007 1.046-.403 2.051-1.139 2.794-.736.742-1.738 1.16-2.784 1.162l-.028.014zm-34.017 2.435h9.752v-2.749h-6.625v-3.235h6.167V16.5h-6.167v-2.88h6.653v-2.74h-9.748v14.213l-.032.014zm20.57-6.634l5.144-6.148h-3.507l-3.361 4.04-3.366-4.045h-3.507l5.143 6.149-5.246 6.624h3.507l3.464-4.404 3.464 4.404h3.507l-5.213-6.634-.028.014z"/>
        <path fill="#E53935" d="M26.677 25.064h-3.89L17 17.71l5.681-6.83h3.885l-4.619 5.554h14.395C35.517 6.843 27.283-.396 17.665.016 8.048.43.463 8.346.463 17.972s7.585 17.543 17.202 17.955c9.618.413 17.852-6.826 18.676-16.417H22.315l4.362 5.554zm-10.809 0h-3.076V10.88h3.076v14.185z"/>
    </g>
</svg>
